<svg xmlns="http://www.w3.org/2000/svg" width="2816" height="824" viewBox="0 0 2816 824" role="img" aria-label="n::things logo">
  <defs>
    <filter id="blueGlow" x="-40%" y="-40%" width="180%" height="180%" color-interpolation-filters="sRGB">
      <feGaussianBlur stdDeviation="14" result="blur"/>
      <feColorMatrix in="blur" type="matrix" values="0 0 0 0 0.11 0 0 0 0 0.44 0 0 0 0 0.82 0 0 0 0.9 0"/>
    </filter>
    <filter id="whiteGlow" x="-40%" y="-40%" width="180%" height="180%" color-interpolation-filters="sRGB">
      <feGaussianBlur stdDeviation="12" result="blur"/>
      <feColorMatrix in="blur" type="matrix" values="0 0 0 0 0.73 0 0 0 0 0.78 0 0 0 0 0.84 0 0 0 0.85 0"/>
    </filter>
    <filter id="greenGlow" x="-40%" y="-40%" width="180%" height="180%" color-interpolation-filters="sRGB">
      <feGaussianBlur stdDeviation="15" result="blur"/>
      <feColorMatrix in="blur" type="matrix" values="0 0 0 0 0.78 0 0 0 0 0.91 0 0 0 0 0.43 0 0 0 0.9 0"/>
    </filter>
    <pattern id="screenGrid" width="6" height="6" patternUnits="userSpaceOnUse">
      <rect x="0" y="0" width="1.15" height="6" fill="#010301" opacity="0.44"/>
      <rect x="0" y="0" width="6" height="1.15" fill="#010301" opacity="0.30"/>
    </pattern>
    <pattern id="softScan" width="4" height="4" patternUnits="userSpaceOnUse">
      <circle cx="2" cy="2" r="1.25" fill="#ffffff" opacity="0.08"/>
    </pattern>
    <g id="blueShape"><path fill-rule="evenodd" d="M 630.0 374.0 C 626.5 371.9 613.1 364.2 607.0 363.0 C 600.9 361.8 579.6 362.1 574.0 363.0 C 568.4 363.9 559.8 368.3 555.0 371.0 C 550.2 373.7 533.4 388.5 530.0 388.0 C 526.6 387.5 527.9 368.3 524.0 366.0 C 520.1 363.7 497.2 345.7 494.0 367.0 C 490.8 388.3 490.4 541.7 494.0 563.0 C 497.6 584.3 523.1 564.2 527.0 564.0 C 530.9 563.8 529.7 576.1 530.0 561.0 C 530.3 545.9 527.3 442.6 530.0 425.0 C 532.7 407.4 550.1 402.5 555.0 399.0 C 559.9 395.5 571.0 393.5 575.0 393.0 C 579.0 392.5 588.6 392.8 592.0 394.0 C 595.4 395.2 603.8 401.3 606.0 404.0 C 608.2 406.7 611.4 402.0 612.0 419.0 C 612.6 436.0 611.7 545.3 612.0 561.0 C 612.3 576.7 611.0 563.8 615.0 564.0 C 619.0 564.2 645.3 580.1 649.0 563.0 C 652.7 545.9 650.1 425.6 649.0 406.0 C 647.9 386.4 641.1 385.5 639.0 382.0 C 636.9 378.5 633.5 376.1 630.0 374.0 Z"/></g>
    <g id="dotShape"><circle cx="777.7" cy="404.0" r="32.8"/><circle cx="976.0" cy="404.0" r="33.0"/><circle cx="777.4" cy="535.4" r="33.0"/><circle cx="976.2" cy="535.4" r="33.0"/></g>
    <g id="greenShape"><path fill-rule="evenodd" d="M 2124.0 348.0 C 2117.3 347.5 2075.1 362.4 2064.0 364.0 C 2052.9 365.6 2028.7 362.7 2022.0 363.0 C 2015.3 363.3 2007.3 365.1 2002.0 367.0 C 1996.7 368.9 1977.7 377.4 1973.0 381.0 C 1968.3 384.6 1961.2 396.3 1959.0 400.0 C 1956.8 403.7 1953.7 410.3 1953.0 415.0 C 1952.3 419.7 1952.6 439.3 1953.0 443.0 C 1953.4 446.7 1956.5 447.3 1957.0 449.0 C 1957.5 450.7 1956.9 456.4 1958.0 459.0 C 1959.1 461.6 1964.5 470.4 1967.0 473.0 C 1969.5 475.6 1981.0 479.5 1981.0 483.0 C 1981.0 486.5 1968.8 501.3 1967.0 505.0 C 1965.2 508.7 1964.1 513.9 1964.0 517.0 C 1963.9 520.1 1965.2 531.3 1966.0 534.0 C 1966.8 536.7 1969.0 540.0 1971.0 542.0 C 1973.0 544.0 1981.0 550.5 1984.0 552.0 C 1987.0 553.5 1991.5 555.6 1999.0 556.0 C 2006.5 556.4 2045.3 555.7 2053.0 556.0 C 2060.7 556.3 2067.1 558.1 2070.0 559.0 C 2072.9 559.9 2078.2 562.5 2080.0 564.0 C 2081.8 565.5 2086.2 570.0 2087.0 573.0 C 2087.8 576.0 2087.5 589.1 2087.0 592.0 C 2086.5 594.9 2085.4 597.8 2082.0 600.0 C 2078.6 602.2 2062.9 610.6 2056.0 612.0 C 2049.1 613.4 2024.0 613.4 2018.0 613.0 C 2012.0 612.6 2004.7 609.8 2001.0 608.0 C 1997.3 606.2 1986.4 598.4 1984.0 596.0 C 1981.6 593.6 1979.2 588.4 1979.0 586.0 C 1978.8 583.6 1984.6 575.4 1982.0 574.0 C 1979.4 572.6 1958.8 572.1 1955.0 573.0 C 1951.2 573.9 1947.8 579.0 1947.0 582.0 C 1946.2 585.0 1947.3 597.4 1948.0 601.0 C 1948.7 604.6 1951.4 612.4 1953.0 615.0 C 1954.6 617.6 1959.6 622.8 1963.0 625.0 C 1966.4 627.2 1979.1 633.4 1984.0 635.0 C 1988.9 636.6 2000.6 639.5 2008.0 640.0 C 2015.4 640.5 2042.8 641.1 2052.0 640.0 C 2061.2 638.9 2086.8 632.2 2093.0 630.0 C 2099.2 627.8 2106.3 622.3 2109.0 620.0 C 2111.7 617.7 2116.2 612.7 2118.0 609.0 C 2119.8 605.3 2125.2 590.9 2126.0 586.0 C 2126.8 581.1 2125.7 567.6 2125.0 564.0 C 2124.3 560.4 2122.1 555.8 2120.0 553.0 C 2117.9 550.2 2110.4 540.7 2106.0 538.0 C 2101.6 535.3 2089.1 529.4 2079.0 528.0 C 2068.9 526.6 2021.9 526.2 2013.0 525.0 C 2004.1 523.8 1998.7 519.3 1997.0 517.0 C 1995.3 514.7 1996.1 506.1 1997.0 504.0 C 1997.9 501.9 1998.6 498.5 2005.0 498.0 C 2011.4 497.5 2048.0 499.9 2056.0 499.0 C 2064.0 498.1 2074.1 493.0 2079.0 490.0 C 2083.9 487.0 2097.5 475.6 2101.0 471.0 C 2104.5 466.4 2109.9 453.6 2111.0 448.0 C 2112.1 442.4 2111.5 423.4 2111.0 419.0 C 2110.5 414.6 2108.9 410.4 2106.0 407.0 C 2103.1 403.6 2085.9 390.4 2084.0 388.0 C 2082.1 385.6 2083.2 385.8 2088.0 385.0 C 2092.8 384.2 2123.6 382.3 2128.0 381.0 C 2132.4 379.7 2129.2 374.3 2129.0 373.0 C 2128.8 371.7 2126.5 371.7 2126.0 369.0 C 2125.5 366.3 2130.7 348.5 2124.0 348.0 Z M 1316.0 289.0 C 1314.2 319.1 1312.4 533.2 1316.0 563.0 C 1319.6 592.8 1345.1 564.2 1349.0 564.0 C 1352.9 563.8 1351.7 576.0 1352.0 561.0 C 1352.3 546.0 1349.8 443.0 1352.0 426.0 C 1354.2 409.0 1367.3 407.6 1372.0 404.0 C 1376.7 400.4 1390.8 394.2 1395.0 393.0 C 1399.2 391.8 1407.6 392.4 1411.0 393.0 C 1414.4 393.6 1423.3 396.2 1426.0 399.0 C 1428.7 401.8 1434.9 401.4 1436.0 419.0 C 1437.1 436.6 1435.6 545.3 1436.0 561.0 C 1436.4 576.7 1436.2 563.8 1440.0 564.0 C 1443.8 564.2 1467.5 580.1 1471.0 563.0 C 1474.5 545.9 1472.5 424.6 1472.0 406.0 C 1471.5 387.4 1468.0 394.5 1466.0 391.0 C 1464.0 387.5 1457.7 377.0 1454.0 374.0 C 1450.3 371.0 1438.6 364.1 1432.0 363.0 C 1425.4 361.9 1401.5 361.5 1393.0 364.0 C 1384.5 366.5 1358.4 383.8 1354.0 386.0 C 1349.6 388.2 1352.2 394.6 1352.0 384.0 C 1351.8 373.4 1352.3 298.7 1352.0 288.0 C 1351.7 277.3 1351.1 285.3 1349.0 285.0 C 1346.9 284.7 1336.6 284.6 1333.0 285.0 C 1329.4 285.4 1317.8 258.9 1316.0 289.0 Z M 1882.0 374.0 C 1878.8 371.7 1866.8 365.2 1861.0 364.0 C 1855.2 362.8 1834.2 362.1 1828.0 363.0 C 1821.8 363.9 1808.8 369.2 1804.0 372.0 C 1799.2 374.8 1786.6 387.2 1784.0 389.0 C 1781.4 390.8 1780.8 389.3 1780.0 389.0 C 1779.2 388.7 1777.5 388.5 1777.0 386.0 C 1776.5 383.5 1778.5 368.1 1775.0 366.0 C 1771.5 363.9 1748.2 345.7 1745.0 367.0 C 1741.8 388.3 1741.6 541.7 1745.0 563.0 C 1748.4 584.3 1772.2 564.2 1776.0 564.0 C 1779.8 563.8 1779.6 576.0 1780.0 561.0 C 1780.4 546.0 1778.8 442.2 1780.0 426.0 C 1781.2 409.8 1786.9 414.6 1791.0 411.0 C 1795.1 407.4 1812.2 394.7 1818.0 393.0 C 1823.8 391.3 1840.3 393.2 1845.0 395.0 C 1849.7 396.8 1858.8 407.1 1861.0 410.0 C 1863.2 412.9 1864.6 405.6 1865.0 422.0 C 1865.4 438.4 1864.7 545.6 1865.0 561.0 C 1865.3 576.4 1864.3 563.8 1868.0 564.0 C 1871.7 564.2 1895.5 579.9 1899.0 563.0 C 1902.5 546.1 1900.9 427.3 1900.0 408.0 C 1899.1 388.7 1893.0 388.7 1891.0 385.0 C 1889.0 381.3 1885.2 376.3 1882.0 374.0 Z M 2213.0 367.0 C 2208.7 368.7 2195.8 375.8 2192.0 379.0 C 2188.2 382.2 2180.1 392.6 2178.0 397.0 C 2175.9 401.4 2173.0 414.9 2173.0 420.0 C 2173.0 425.1 2176.5 440.1 2178.0 444.0 C 2179.5 447.9 2185.1 454.2 2187.0 456.0 C 2188.9 457.8 2188.6 458.4 2196.0 461.0 C 2203.4 463.6 2246.3 476.8 2255.0 480.0 C 2263.7 483.2 2272.6 488.4 2276.0 491.0 C 2279.4 493.6 2284.8 501.4 2286.0 504.0 C 2287.2 506.6 2287.4 512.6 2287.0 515.0 C 2286.6 517.4 2283.4 524.2 2282.0 526.0 C 2280.6 527.8 2277.6 530.6 2274.0 532.0 C 2270.4 533.4 2253.8 538.2 2249.0 539.0 C 2244.2 539.8 2233.7 539.4 2230.0 539.0 C 2226.3 538.6 2220.3 537.3 2215.0 535.0 C 2209.7 532.7 2185.6 519.2 2181.0 518.0 C 2176.4 516.8 2174.8 521.5 2173.0 524.0 C 2171.2 526.5 2163.0 537.5 2164.0 541.0 C 2165.0 544.5 2176.3 553.2 2182.0 556.0 C 2187.7 558.8 2208.8 565.7 2217.0 567.0 C 2225.2 568.3 2250.4 568.5 2258.0 568.0 C 2265.6 567.5 2282.3 563.4 2287.0 562.0 C 2291.7 560.6 2297.4 557.8 2301.0 555.0 C 2304.6 552.2 2317.3 539.8 2320.0 536.0 C 2322.7 532.2 2325.5 524.7 2326.0 520.0 C 2326.5 515.3 2326.1 497.8 2325.0 493.0 C 2323.9 488.2 2318.9 479.5 2316.0 476.0 C 2313.1 472.5 2308.1 465.4 2298.0 461.0 C 2287.9 456.6 2232.2 438.9 2223.0 435.0 C 2213.8 431.1 2214.1 427.9 2213.0 425.0 C 2211.9 422.1 2212.5 410.5 2213.0 408.0 C 2213.5 405.5 2215.8 403.5 2218.0 402.0 C 2220.2 400.5 2228.7 395.0 2233.0 394.0 C 2237.3 393.0 2252.3 392.4 2258.0 393.0 C 2263.7 393.6 2281.0 398.1 2286.0 400.0 C 2291.0 401.9 2300.8 411.4 2304.0 411.0 C 2307.2 410.6 2314.4 398.7 2316.0 396.0 C 2317.6 393.3 2319.0 387.6 2319.0 386.0 C 2319.0 384.4 2318.3 382.5 2316.0 381.0 C 2313.7 379.5 2302.8 373.8 2298.0 372.0 C 2293.2 370.2 2279.2 365.0 2272.0 364.0 C 2264.8 363.0 2238.4 362.7 2232.0 363.0 C 2225.6 363.3 2217.3 365.3 2213.0 367.0 Z M 1141.0 321.0 C 1138.8 326.0 1141.0 358.0 1140.0 363.0 C 1139.0 368.0 1136.9 366.6 1132.0 367.0 C 1127.1 367.4 1099.1 364.1 1095.0 367.0 C 1090.9 369.9 1094.0 390.9 1094.0 394.0 C 1094.0 397.1 1090.5 395.8 1095.0 396.0 C 1099.5 396.2 1131.1 395.7 1136.0 396.0 C 1140.9 396.3 1139.6 385.6 1140.0 399.0 C 1140.4 412.4 1139.3 504.9 1140.0 520.0 C 1140.7 535.1 1143.8 534.1 1146.0 538.0 C 1148.2 541.9 1155.8 553.0 1160.0 556.0 C 1164.2 559.0 1177.8 564.7 1185.0 566.0 C 1192.2 567.3 1219.4 568.3 1226.0 568.0 C 1232.6 567.7 1242.2 564.5 1246.0 563.0 C 1249.8 561.5 1260.1 557.6 1261.0 554.0 C 1261.9 550.4 1255.3 532.7 1254.0 530.0 C 1252.7 527.3 1251.6 528.2 1249.0 529.0 C 1246.4 529.8 1235.1 535.9 1230.0 537.0 C 1224.9 538.1 1206.7 539.6 1202.0 539.0 C 1197.3 538.4 1189.8 533.7 1187.0 531.0 C 1184.2 528.3 1177.2 528.3 1176.0 514.0 C 1174.8 499.7 1175.6 411.8 1176.0 399.0 C 1176.4 386.2 1172.8 396.3 1180.0 396.0 C 1187.2 395.7 1235.1 398.9 1242.0 396.0 C 1248.9 393.1 1244.1 372.2 1244.0 369.0 C 1243.9 365.8 1247.9 366.2 1241.0 366.0 C 1234.1 365.8 1186.9 367.2 1180.0 367.0 C 1173.1 366.8 1177.4 369.3 1177.0 364.0 C 1176.6 358.7 1177.8 323.1 1176.0 318.0 C 1174.2 312.9 1163.8 316.7 1160.0 317.0 C 1156.2 317.3 1143.2 316.0 1141.0 321.0 Z M 1541.0 367.0 C 1530.8 370.0 1535.2 391.9 1541.0 395.0 C 1546.8 398.1 1588.7 395.6 1595.0 396.0 C 1601.3 396.4 1598.6 384.5 1599.0 399.0 C 1599.4 413.5 1599.4 515.3 1599.0 530.0 C 1598.6 544.7 1601.6 534.4 1595.0 535.0 C 1588.4 535.6 1544.2 533.0 1538.0 536.0 C 1531.8 539.0 1521.6 560.1 1538.0 563.0 C 1554.4 565.9 1672.6 565.9 1689.0 563.0 C 1705.4 560.1 1694.7 539.2 1689.0 536.0 C 1683.3 532.8 1641.8 551.3 1636.0 533.0 C 1630.2 514.7 1645.3 385.0 1635.0 367.0 C 1624.7 349.0 1551.2 364.0 1541.0 367.0 Z M 2016.0 394.0 C 2021.8 391.9 2041.9 392.1 2047.0 393.0 C 2052.1 393.9 2060.3 399.4 2063.0 402.0 C 2065.7 404.6 2071.0 412.4 2072.0 417.0 C 2073.0 421.6 2072.4 439.9 2072.0 444.0 C 2071.6 448.1 2069.6 452.6 2068.0 455.0 C 2066.4 457.4 2059.3 464.3 2057.0 466.0 C 2054.7 467.7 2051.2 470.4 2047.0 471.0 C 2042.8 471.6 2022.3 472.4 2018.0 472.0 C 2013.7 471.6 2009.3 468.6 2007.0 467.0 C 2004.7 465.4 1998.7 460.2 1997.0 457.0 C 1995.3 453.8 1991.4 441.9 1991.0 437.0 C 1990.6 432.1 1990.3 416.7 1993.0 412.0 C 1995.7 407.3 2010.2 396.1 2016.0 394.0 Z M 1598.0 277.0 C 1594.3 278.0 1588.4 284.5 1587.0 286.0 C 1585.6 287.5 1585.1 288.0 1585.0 291.0 C 1584.9 294.0 1584.7 310.3 1586.0 314.0 C 1587.3 317.7 1593.4 323.8 1597.0 325.0 C 1600.6 326.2 1615.4 326.0 1619.0 325.0 C 1622.6 324.0 1628.4 317.8 1630.0 316.0 C 1631.6 314.2 1633.6 310.5 1634.0 308.0 C 1634.4 305.5 1634.4 295.5 1634.0 293.0 C 1633.6 290.5 1631.4 286.7 1630.0 285.0 C 1628.6 283.3 1624.5 277.9 1621.0 277.0 C 1617.5 276.1 1601.7 276.0 1598.0 277.0 Z"/></g>
  </defs>
  <use href="#blueShape" fill="#1c71d0" filter="url(#blueGlow)" opacity="0.95"/>
  <use href="#dotShape" fill="#bac8d6" filter="url(#whiteGlow)" opacity="0.95"/>
  <use href="#greenShape" fill="#c8e96d" filter="url(#greenGlow)" opacity="0.95"/>
  <use href="#blueShape" fill="#1c71d0"/>
  <use href="#dotShape" fill="#bac8d6"/>
  <use href="#greenShape" fill="#c8e96d"/>
  <g opacity="0.7">
    <use href="#blueShape" fill="url(#screenGrid)"/>
    <use href="#dotShape" fill="url(#screenGrid)" opacity="0.55"/>
    <use href="#greenShape" fill="url(#screenGrid)"/>
  </g>
  <g opacity="0.42">
    <use href="#blueShape" fill="url(#softScan)"/>
    <use href="#dotShape" fill="url(#softScan)"/>
    <use href="#greenShape" fill="url(#softScan)"/>
  </g>
</svg>
